<?xml version="1.0" standalone="no"?>
<!DOCTYPE svg PUBLIC "-//W3C//DTD SVG 20010904//EN"
 "http://www.w3.org/TR/2001/REC-SVG-20010904/DTD/svg10.dtd">
<svg version="1.0" xmlns="http://www.w3.org/2000/svg"
 width="392.000000pt" height="392.000000pt" viewBox="0 0 392.000000 392.000000"
 preserveAspectRatio="xMidYMid meet">
<metadata>
Created by potrace 1.11, written by Peter Selinger 2001-2013
</metadata>
<g transform="translate(0.000000,392.000000) scale(0.100000,-0.100000)"
fill="#000000" stroke="none">
<path d="M0 1960 l0 -1960 1271 0 1271 0 30 25 c35 29 54 28 51 -4 l-3 -21
650 0 650 0 0 1960 0 1960 -1960 0 -1960 0 0 -1960z m2895 1400 c-3 -5 0 -10
7 -10 7 0 25 -11 40 -25 15 -14 31 -25 36 -25 29 0 186 -194 228 -281 19 -39
61 -150 116 -309 9 -25 28 -75 42 -112 20 -52 23 -70 13 -78 -6 -5 -25 -21
-42 -36 -16 -15 -50 -36 -75 -47 -67 -30 -97 -64 -103 -117 -3 -25 -10 -66
-17 -92 -11 -45 -10 -51 22 -115 19 -38 40 -84 48 -103 18 -48 39 -70 66 -70
13 0 26 -5 29 -11 5 -7 13 -4 26 7 10 9 15 22 11 28 -4 6 -7 32 -7 59 l0 47
37 0 c42 0 44 -4 27 -60 -10 -34 -8 -47 18 -116 42 -109 57 -201 50 -293 -11
-130 -100 -526 -137 -606 -5 -11 -16 -42 -24 -70 -8 -27 -31 -95 -50 -150 -26
-72 -34 -109 -30 -132 3 -18 3 -49 0 -68 -6 -29 -11 -35 -31 -35 -14 0 -25 -4
-25 -10 0 -16 -27 -12 -34 5 -3 8 -17 20 -31 25 -14 5 -25 16 -25 25 0 8 -3
14 -7 14 -23 -4 -33 3 -33 21 0 17 -4 19 -27 14 -27 -6 -27 -6 -8 9 11 9 30
17 43 17 25 0 30 17 6 22 -13 2 -12 7 6 26 11 12 23 38 25 57 3 19 5 38 6 42
1 4 1 23 0 42 -1 25 -5 32 -16 27 -8 -3 -15 -1 -15 4 0 6 6 10 13 11 10 0 10
2 0 6 -19 7 -15 20 8 26 16 4 19 11 15 29 -3 13 -3 17 0 11 3 -7 15 -13 27
-13 18 0 19 2 7 10 -12 8 -9 10 12 10 15 0 30 5 33 10 10 15 23 12 28 -7 3
-10 6 2 7 27 2 43 3 43 12 -20 5 -36 7 -82 4 -103 -3 -27 0 -37 10 -37 8 0 14
7 14 15 0 13 26 77 52 128 9 19 18 65 23 127 3 35 32 143 52 190 28 67 36 139
25 220 -14 95 -29 126 -52 105 -24 -22 -44 -22 -45 -1 0 20 -48 54 -76 55 -19
1 -31 23 -21 38 4 5 16 13 27 18 18 7 18 9 3 12 -10 3 -18 9 -18 15 0 6 10 8
25 4 20 -5 26 -2 31 18 3 14 3 30 -1 36 -4 6 -2 17 5 24 8 11 5 19 -16 35 -28
22 -74 100 -74 125 0 8 -11 23 -25 34 -15 12 -25 30 -25 47 0 17 -4 24 -12 19
-8 -5 -9 -2 -5 10 4 10 1 19 -8 22 -8 4 -15 12 -15 19 0 7 -7 18 -15 25 -9 7
-14 19 -11 27 3 8 -1 16 -9 19 -10 4 -13 14 -9 29 3 13 2 30 -2 37 -10 16 -17
44 -18 78 -1 30 -34 61 -57 54 -9 -2 -22 2 -29 11 -7 8 -17 15 -23 15 -6 0
-17 7 -26 15 -9 9 -40 34 -70 55 -30 22 -51 40 -47 40 5 0 2 7 -5 17 -8 9 -13
24 -11 35 2 13 -3 18 -22 18 -16 0 -26 6 -26 15 0 8 3 14 8 13 4 -1 17 3 29
10 14 8 24 8 28 2 4 -6 21 -4 45 6 30 12 43 13 60 4 36 -19 49 3 22 39 -12 17
-18 33 -12 36 15 9 0 35 -21 35 -12 0 -16 5 -13 15 4 8 10 12 15 9 5 -3 9 -1
9 5 0 5 -5 13 -11 16 -6 4 -8 13 -5 21 4 10 -2 14 -20 14 -15 0 -23 4 -19 11
9 14 -56 79 -80 79 -11 0 -39 7 -63 15 -24 9 -47 13 -52 10 -4 -3 -10 2 -14
10 -3 8 -1 17 5 21 5 3 7 14 4 24 -5 15 1 20 29 25 43 9 67 32 42 41 -15 6
-15 9 -1 30 8 13 15 37 15 54 0 45 40 110 68 110 32 0 92 34 92 52 0 10 5 18
11 18 5 0 7 -4 4 -10z m-265 -250 c0 -5 -2 -10 -4 -10 -3 0 -8 5 -11 10 -3 6
-1 10 4 10 6 0 11 -4 11 -10z m818 -762 c7 -6 12 -33 12 -64 0 -54 0 -54 -27
-48 -22 4 -25 3 -13 -5 13 -10 13 -11 0 -10 -8 1 -26 5 -40 9 l-25 8 25 1 c34
1 14 16 -40 29 -33 8 -48 8 -59 -1 -12 -10 -13 -8 -7 11 6 16 3 22 -8 22 -9 0
-16 5 -16 10 0 14 13 13 29 -2 11 -10 14 -10 18 0 3 6 11 12 19 12 8 0 22 8
33 19 32 32 66 35 99 9z m-78 -183 c0 -8 -4 -15 -10 -15 -5 0 -10 7 -10 15 0
8 5 15 10 15 6 0 10 -7 10 -15z m-804 -400 c-13 -14 -28 -25 -34 -25 -8 0 -22
22 -22 35 0 3 26 8 67 14 7 0 2 -10 -11 -24z m-66 -45 c0 -5 -2 -10 -4 -10 -3
0 -8 5 -11 10 -3 6 -1 10 4 10 6 0 11 -4 11 -10z m777 -195 c8 -58 5 -97 -7
-109 -5 -5 -10 -18 -10 -28 0 -38 -21 -65 -48 -62 -15 1 -31 -1 -37 -5 -22
-18 -82 -22 -95 -6 -7 8 -20 15 -29 15 -9 0 -24 7 -34 14 -16 13 -16 14 7 20
35 9 108 76 97 90 -37 46 -8 95 57 97 20 0 46 4 57 9 30 13 37 8 42 -35z
m-187 -45 c0 -5 -5 -10 -11 -10 -5 0 -7 5 -4 10 3 6 8 10 11 10 2 0 4 -4 4
-10z m51 -227 c6 -16 13 -52 16 -82 5 -43 3 -56 -10 -66 -10 -7 -17 -30 -19
-61 -2 -27 -6 -47 -10 -44 -3 3 -18 -6 -32 -19 -16 -15 -26 -19 -26 -11 0 7
-3 11 -6 7 -3 -3 -22 3 -41 14 -19 11 -38 17 -43 14 -17 -10 -50 15 -50 38 0
22 -1 22 -13 -2 -22 -44 -50 -36 -60 17 -5 23 -3 32 7 32 8 0 17 7 20 16 7 19
31 14 31 -7 0 -23 20 -20 26 4 8 30 -23 64 -40 44 -8 -10 -21 -12 -44 -8 -27
6 -32 11 -30 34 1 15 -2 25 -6 23 -4 -3 -3 10 3 29 16 53 52 46 76 -14 12 -29
15 -31 21 -15 3 10 5 22 2 26 -2 4 1 17 8 29 10 19 17 21 63 16 28 -4 58 -2
66 3 8 5 30 10 48 10 26 0 34 -5 43 -27z m-385 -31 c19 -13 24 -43 10 -58 -16
-16 -30 -19 -22 -5 4 5 -3 7 -14 4 -17 -4 -20 0 -20 24 0 41 18 54 46 35z
m457 -171 c-10 -13 -17 25 -13 79 2 29 4 25 10 -20 4 -30 5 -57 3 -59z m-473
89 c0 -5 -4 -10 -10 -10 -5 0 -10 5 -10 10 0 6 5 10 10 10 6 0 10 -4 10 -10z
m80 -86 c0 -27 -23 -32 -46 -10 -18 18 -18 21 2 41 20 20 44 3 44 -31z m196
-135 c6 -10 -36 -12 -61 -3 -11 5 -13 9 -5 14 14 8 58 1 66 -11z"/>
<path d="M2668 3033 c7 -3 16 -2 19 1 4 3 -2 6 -13 5 -11 0 -14 -3 -6 -6z"/>
<path d="M2860 2655 c0 -8 5 -15 10 -15 6 0 10 7 10 15 0 8 -4 15 -10 15 -5 0
-10 -7 -10 -15z"/>
<path d="M3140 657 c0 -8 9 -17 21 -20 15 -4 19 -1 17 11 -4 21 -38 29 -38 9z"/>
<path d="M3058 643 c6 -2 18 -2 25 0 6 3 1 5 -13 5 -14 0 -19 -2 -12 -5z"/>
<path d="M3183 1514 c-14 -30 -7 -80 12 -88 19 -7 25 18 18 69 -7 52 -13 55
-30 19z"/>
</g>
</svg>
